<svg xmlns="http://www.w3.org/2000/svg" viewBox="0 0 64 64"><defs><linearGradient id="p" x1="10" y1="6" x2="54" y2="58"><stop stop-color="#5E2A86"/><stop offset="1" stop-color="#2B123D"/></linearGradient><linearGradient id="g" x1="18" y1="10" x2="48" y2="54"><stop stop-color="#F3D76D"/><stop offset="1" stop-color="#D4AF37"/></linearGradient></defs><rect width="64" height="64" rx="14" fill="#fff"/><path d="M32 7 51 14v16c0 12.8-7.6 22.7-19 27-11.4-4.3-19-14.2-19-27V14l19-7Z" fill="url(#p)"/><path d="M32 11.5 46.5 17v13.1c0 9.8-5.5 17.5-14.5 21.3-9-3.8-14.5-11.5-14.5-21.3V17L32 11.5Z" fill="none" stroke="url(#g)" stroke-width="3"/><path d="M24 35.5V22h4.6v9.5h10.6v4H24Zm11.6-13.5H40v20h-4.4V22Z" fill="#fff"/><path d="M24 42h16" stroke="url(#g)" stroke-width="3" stroke-linecap="round"/></svg>